<?xml version="1.0" encoding="UTF-8" ?>
<!DOCTYPE svg PUBLIC "-//W3C//DTD SVG 1.1//EN" "http://www.w3.org/Graphics/SVG/1.1/DTD/svg11.dtd">
<svg width="680pt" height="510pt" viewBox="0 0 680 510" version="1.1" xmlns="http://www.w3.org/2000/svg">
<title>All The Things meme clean / blank template</title>
<path fill="#fffffe" d=" M 0.00 0.00 L 680.00 0.00 L 680.00 419.55 C 674.77 417.05 670.67 412.63 665.12 410.81 C 654.56 406.62 643.25 404.41 631.92 403.74 C 618.99 402.59 606.01 401.81 593.10 400.44 C 583.76 399.95 574.35 401.07 565.08 399.60 C 551.89 399.26 538.69 399.78 525.50 399.34 C 532.55 390.86 541.37 384.00 548.27 375.38 C 554.83 368.58 561.34 361.62 569.14 356.21 C 579.64 347.54 590.97 339.99 602.07 332.15 C 611.32 325.92 620.82 320.04 629.63 313.19 C 640.28 304.91 651.00 296.71 662.09 289.02 C 666.54 285.98 670.28 282.02 674.87 279.16 C 674.86 277.87 674.85 276.58 674.85 275.30 C 670.16 274.91 665.80 276.69 661.61 278.53 C 647.93 282.56 634.51 287.43 620.94 291.82 C 611.53 294.53 602.83 299.12 593.80 302.82 C 562.23 318.34 529.53 331.48 497.68 346.42 C 500.99 342.15 504.20 337.77 507.97 333.88 C 512.89 328.35 517.05 322.21 521.57 316.36 C 524.76 312.27 529.30 309.54 532.74 305.67 C 536.42 301.53 540.47 297.46 545.74 295.40 C 545.71 294.08 545.69 292.77 545.67 291.46 C 537.43 292.01 529.14 292.43 521.08 294.33 C 514.44 295.36 507.73 296.18 501.37 298.45 C 493.66 300.19 485.92 301.88 478.45 304.49 C 478.57 302.43 478.61 300.34 479.13 298.32 C 484.48 278.06 493.09 258.85 502.04 239.96 C 505.21 231.95 509.96 224.75 514.27 217.33 C 523.01 202.31 531.78 187.27 542.10 173.26 C 549.80 161.36 558.31 150.03 566.47 138.45 C 571.80 131.13 576.77 123.54 582.62 116.61 C 588.65 108.90 595.13 101.55 601.02 93.73 C 600.92 92.23 600.88 90.73 600.65 89.25 C 599.85 88.51 598.67 88.54 597.71 88.19 C 589.39 93.38 579.74 95.76 571.04 100.15 C 553.28 109.95 535.71 120.09 517.83 129.67 C 505.42 136.85 493.45 144.76 481.35 152.43 C 483.68 133.75 485.04 114.98 487.25 96.30 C 481.46 95.47 475.69 94.30 469.84 94.28 C 470.46 99.29 472.43 103.98 473.74 108.83 C 476.33 108.81 478.93 108.81 481.53 108.84 C 481.92 107.73 482.34 106.63 482.78 105.54 C 481.03 121.89 479.32 138.24 477.70 154.59 C 472.86 158.00 467.63 160.77 462.27 163.23 C 456.84 165.68 452.52 170.10 446.82 172.01 C 447.91 169.00 448.88 165.94 449.79 162.88 C 450.93 159.05 453.56 155.97 455.57 152.59 C 457.91 148.90 459.18 144.49 462.44 141.43 C 466.17 137.51 471.57 134.23 472.07 128.29 C 463.71 128.28 455.65 131.49 448.35 135.34 C 445.46 136.77 442.33 137.72 439.69 139.60 C 429.31 147.20 419.60 155.64 409.30 163.34 C 398.81 172.00 388.06 180.40 376.24 187.19 C 372.74 189.08 368.97 190.47 365.63 192.66 C 361.94 195.10 358.62 198.08 354.77 200.29 C 351.63 177.75 346.92 155.49 342.65 133.16 C 341.92 128.65 341.66 123.98 339.60 119.81 C 338.87 119.80 337.41 119.78 336.68 119.77 C 334.50 124.11 333.33 128.84 331.26 133.23 C 329.11 138.40 326.30 143.31 324.65 148.68 C 322.82 154.67 321.54 160.82 319.88 166.86 C 318.44 171.80 318.43 177.02 317.00 181.96 C 315.99 185.40 315.07 188.86 314.37 192.38 C 309.99 186.59 304.63 181.61 300.07 175.95 C 296.45 171.25 291.56 167.73 287.97 163.00 C 277.64 149.55 268.85 135.01 259.34 120.98 C 259.19 126.98 259.36 132.99 258.80 138.98 C 258.06 145.96 258.92 153.02 257.65 159.96 C 257.35 171.36 257.71 182.78 257.49 194.19 C 247.59 184.39 238.06 174.01 226.45 166.18 C 218.87 160.48 210.08 156.53 202.99 150.15 C 193.64 143.54 185.36 135.55 175.85 129.17 C 159.74 117.04 143.93 104.53 127.95 92.24 C 129.43 99.20 131.97 105.86 133.73 112.74 C 138.89 129.82 143.67 147.02 148.90 164.08 C 150.61 168.96 151.43 174.09 153.03 179.00 C 158.68 195.73 164.80 212.28 171.33 228.69 C 176.37 243.64 184.37 257.32 189.90 272.08 C 180.91 266.36 170.17 264.85 160.62 260.41 C 156.66 258.64 152.42 257.51 148.64 255.35 C 137.71 248.88 126.52 242.87 115.47 236.63 C 105.89 232.09 96.69 226.69 86.64 223.22 C 79.84 220.28 72.81 217.95 65.99 215.07 C 63.68 214.07 61.13 214.20 58.67 214.12 C 58.65 215.24 58.63 216.36 58.61 217.48 C 59.18 217.54 60.30 217.64 60.87 217.69 C 66.14 222.89 71.09 228.45 76.96 233.00 C 81.46 237.87 86.97 241.62 91.43 246.52 C 96.31 251.65 101.78 256.24 106.04 261.92 C 113.17 270.90 119.63 280.39 126.35 289.68 C 132.39 297.59 141.23 302.52 148.32 309.31 C 135.32 309.54 122.32 309.27 109.32 309.46 C 112.02 312.67 115.62 314.81 119.06 317.10 C 125.37 322.06 130.09 328.63 135.57 334.41 C 146.32 344.75 159.14 353.34 167.31 366.06 C 147.49 367.79 128.24 373.40 108.41 375.02 C 101.90 367.49 95.84 359.57 89.18 352.18 C 92.38 349.95 95.84 347.46 96.75 343.40 C 97.12 339.33 96.82 335.24 96.84 331.16 C 95.72 329.70 94.67 328.18 93.61 326.69 C 94.32 321.31 89.55 317.75 88.11 312.96 C 86.74 308.03 84.50 303.19 80.64 299.71 C 78.47 297.97 76.37 296.17 74.17 294.48 C 74.05 293.99 73.82 293.00 73.70 292.50 C 71.95 290.74 70.19 288.97 68.07 287.64 C 67.63 286.26 67.24 284.87 66.88 283.47 C 65.75 282.92 64.63 282.35 63.52 281.77 C 62.53 281.21 61.54 280.67 60.54 280.13 C 55.86 276.27 51.19 272.35 47.50 267.48 C 44.48 266.21 41.16 265.80 38.00 264.96 C 35.86 263.19 33.26 262.30 30.47 262.48 C 30.36 265.90 31.34 269.17 32.37 272.38 C 30.72 271.56 29.08 270.72 27.45 269.86 C 27.28 273.37 26.82 276.85 26.18 280.31 C 25.16 280.94 24.14 281.58 23.12 282.22 C 22.34 282.21 20.76 282.17 19.98 282.15 C 19.40 282.73 18.82 283.32 18.24 283.91 C 17.32 283.89 15.47 283.85 14.54 283.83 C 14.51 284.27 14.44 285.14 14.40 285.58 C 13.17 285.19 11.95 284.82 10.72 284.46 C 7.80 281.65 3.71 282.10 0.00 282.17 L 0.00 0.00 Z" />
<path fill="#fcfe01" d=" M 597.71 88.19 C 598.67 88.54 599.85 88.51 600.65 89.25 C 600.88 90.73 600.92 92.23 601.02 93.73 C 595.13 101.55 588.65 108.90 582.62 116.61 C 576.77 123.54 571.80 131.13 566.47 138.45 C 558.31 150.03 549.80 161.36 542.10 173.26 C 531.78 187.27 523.01 202.31 514.27 217.33 C 509.96 224.75 505.21 231.95 502.04 239.96 C 493.09 258.85 484.48 278.06 479.13 298.32 C 478.61 300.34 478.57 302.43 478.45 304.49 C 485.92 301.88 493.66 300.19 501.37 298.45 C 507.73 296.18 514.44 295.36 521.08 294.33 C 529.14 292.43 537.43 292.01 545.67 291.46 C 545.69 292.77 545.71 294.08 545.74 295.40 C 540.47 297.46 536.42 301.53 532.74 305.67 C 529.30 309.54 524.76 312.27 521.57 316.36 C 517.05 322.21 512.89 328.35 507.97 333.88 C 504.20 337.77 500.99 342.15 497.68 346.42 C 529.53 331.48 562.23 318.34 593.80 302.82 C 602.83 299.12 611.53 294.53 620.94 291.82 C 634.51 287.43 647.93 282.56 661.61 278.53 C 665.80 276.69 670.16 274.91 674.85 275.30 C 674.85 276.58 674.86 277.87 674.87 279.16 C 670.28 282.02 666.54 285.98 662.09 289.02 C 651.00 296.71 640.28 304.91 629.63 313.19 C 620.82 320.04 611.32 325.92 602.07 332.15 C 590.97 339.99 579.64 347.54 569.14 356.21 C 561.34 361.62 554.83 368.58 548.27 375.38 C 541.37 384.00 532.55 390.86 525.50 399.34 C 538.69 399.78 551.89 399.26 565.08 399.60 C 574.35 401.07 583.76 399.95 593.10 400.44 C 606.01 401.81 618.99 402.59 631.92 403.74 C 643.25 404.41 654.56 406.62 665.12 410.81 C 670.67 412.63 674.77 417.05 680.00 419.55 L 680.00 427.04 C 676.80 427.71 673.65 428.54 670.53 429.49 C 660.85 432.55 650.83 434.31 641.08 437.11 C 620.76 444.07 600.49 451.12 580.23 458.23 C 571.77 461.85 563.14 465.09 554.76 468.89 C 545.64 473.72 536.26 478.00 526.93 482.39 C 529.65 485.35 532.88 487.75 536.37 489.76 C 544.19 495.85 551.03 503.04 558.06 510.00 L 500.67 510.00 C 500.60 492.34 500.80 474.68 500.58 457.03 C 497.86 434.60 491.33 412.88 485.76 391.04 C 480.51 368.28 475.15 345.50 467.76 323.32 C 467.02 319.99 465.99 316.73 465.11 313.44 C 465.80 312.20 466.48 310.95 467.16 309.70 C 466.73 309.63 465.86 309.50 465.43 309.43 C 470.37 257.06 476.32 204.79 481.35 152.43 C 493.45 144.76 505.42 136.85 517.83 129.67 C 535.71 120.09 553.28 109.95 571.04 100.15 C 579.74 95.76 589.39 93.38 597.71 88.19 Z" />
<path fill="#fcfe01" d=" M 127.95 92.24 C 143.93 104.53 159.74 117.04 175.85 129.17 C 185.36 135.55 193.64 143.54 202.99 150.15 C 210.08 156.53 218.87 160.48 226.45 166.18 C 238.06 174.01 247.59 184.39 257.49 194.19 C 257.71 182.78 257.35 171.36 257.65 159.96 C 258.92 153.02 258.06 145.96 258.80 138.98 C 259.36 132.99 259.19 126.98 259.34 120.98 C 268.85 135.01 277.64 149.55 287.97 163.00 C 291.56 167.73 296.45 171.25 300.07 175.95 C 304.63 181.61 309.99 186.59 314.37 192.38 C 315.07 188.86 315.99 185.40 317.00 181.96 C 318.43 177.02 318.44 171.80 319.88 166.86 C 321.54 160.82 322.82 154.67 324.65 148.68 C 326.30 143.31 329.11 138.40 331.26 133.23 C 333.33 128.84 334.50 124.11 336.68 119.77 C 337.41 119.78 338.87 119.80 339.60 119.81 C 341.66 123.98 341.92 128.65 342.65 133.16 C 346.92 155.49 351.63 177.75 354.77 200.29 C 358.62 198.08 361.94 195.10 365.63 192.66 C 368.97 190.47 372.74 189.08 376.24 187.19 C 388.06 180.40 398.81 172.00 409.30 163.34 C 419.60 155.64 429.31 147.20 439.69 139.60 C 442.33 137.72 445.46 136.77 448.35 135.34 C 455.65 131.49 463.71 128.28 472.07 128.29 C 471.57 134.23 466.17 137.51 462.44 141.43 C 459.18 144.49 457.91 148.90 455.57 152.59 C 453.56 155.97 450.93 159.05 449.79 162.88 C 448.88 165.94 447.91 169.00 446.82 172.01 C 452.52 170.10 456.84 165.68 462.27 163.23 C 467.63 160.77 472.86 158.00 477.70 154.59 C 473.74 193.06 469.73 231.52 465.83 270.00 C 465.17 277.14 464.08 284.25 463.81 291.43 C 462.21 285.11 461.03 278.68 460.34 272.21 C 458.74 266.38 456.15 260.87 453.58 255.43 C 449.39 249.12 446.82 241.49 440.42 236.92 C 444.89 228.13 443.34 216.72 436.34 209.69 C 433.25 206.13 428.71 204.46 424.31 203.17 C 420.43 203.02 416.39 202.97 412.79 204.66 C 409.03 206.44 404.91 207.89 402.06 211.07 C 399.68 213.40 398.03 216.32 396.49 219.25 C 393.71 219.22 390.91 219.31 388.17 219.82 C 382.88 220.68 377.48 219.59 372.20 220.53 C 368.56 221.13 364.92 221.78 361.31 222.51 C 361.25 218.98 360.62 215.37 358.85 212.28 C 356.58 209.50 353.52 207.51 350.83 205.19 C 345.99 201.93 340.35 200.20 334.84 198.48 C 331.28 197.70 327.60 198.16 324.00 198.04 C 319.28 197.80 314.87 199.71 310.27 200.35 C 300.63 201.59 291.30 204.61 282.42 208.49 C 280.61 209.33 278.94 210.43 277.31 211.56 C 276.62 211.59 275.24 211.65 274.55 211.68 C 274.54 213.16 274.53 214.64 274.52 216.13 C 282.40 217.44 289.94 220.53 296.14 225.62 C 301.53 228.67 305.99 233.07 311.43 236.02 C 308.69 236.67 305.24 236.94 303.72 239.69 C 301.79 242.75 299.36 245.49 296.33 247.50 C 289.37 244.66 281.56 247.42 276.15 252.15 C 272.94 256.06 270.19 260.65 270.24 265.87 C 269.44 274.76 275.54 283.05 283.59 286.31 C 285.09 286.62 286.58 286.98 288.06 287.37 C 288.51 290.25 288.84 293.16 289.16 296.07 C 289.65 299.60 291.92 302.61 292.46 306.13 C 292.13 308.44 291.49 310.70 291.42 313.06 C 295.20 317.70 297.85 323.14 300.62 328.42 C 302.97 334.68 306.78 340.21 309.74 346.18 C 291.48 356.64 273.63 367.83 255.49 378.50 C 223.65 398.04 191.46 417.02 159.46 436.30 C 142.66 415.70 125.30 395.55 108.41 375.02 C 128.24 373.40 147.49 367.79 167.31 366.06 C 159.14 353.34 146.32 344.75 135.57 334.41 C 130.09 328.63 125.37 322.06 119.06 317.10 C 115.62 314.81 112.02 312.67 109.32 309.46 C 122.32 309.27 135.32 309.54 148.32 309.31 C 141.23 302.52 132.39 297.59 126.35 289.68 C 119.63 280.39 113.17 270.90 106.04 261.92 C 101.78 256.24 96.31 251.65 91.43 246.52 C 86.97 241.62 81.46 237.87 76.96 233.00 C 71.09 228.45 66.14 222.89 60.87 217.69 C 60.30 217.64 59.18 217.54 58.61 217.48 C 58.63 216.36 58.65 215.24 58.67 214.12 C 61.13 214.20 63.68 214.07 65.99 215.07 C 72.81 217.95 79.84 220.28 86.64 223.22 C 96.69 226.69 105.89 232.09 115.47 236.63 C 126.52 242.87 137.71 248.88 148.64 255.35 C 152.42 257.51 156.66 258.64 160.62 260.41 C 170.17 264.85 180.91 266.36 189.90 272.08 C 184.37 257.32 176.37 243.64 171.33 228.69 C 164.80 212.28 158.68 195.73 153.03 179.00 C 151.43 174.09 150.61 168.96 148.90 164.08 C 143.67 147.02 138.89 129.82 133.73 112.74 C 131.97 105.86 129.43 99.20 127.95 92.24 Z" />
<path fill="#090704" d=" M 469.84 94.28 C 475.69 94.30 481.46 95.47 487.25 96.30 C 485.04 114.98 483.68 133.75 481.35 152.43 C 476.32 204.79 470.37 257.06 465.43 309.43 C 465.86 309.50 466.73 309.63 467.16 309.70 C 466.48 310.95 465.80 312.20 465.11 313.44 C 465.99 316.73 467.02 319.99 467.76 323.32 C 475.15 345.50 480.51 368.28 485.76 391.04 C 491.33 412.88 497.86 434.60 500.58 457.03 C 500.80 474.68 500.60 492.34 500.67 510.00 L 497.23 510.00 C 497.24 493.67 497.21 477.34 497.25 461.01 C 496.66 449.92 494.18 439.05 491.49 428.31 C 489.63 418.59 486.65 409.15 484.15 399.59 C 480.32 384.07 477.03 368.42 472.69 353.02 C 469.22 338.12 463.52 323.84 460.30 308.88 C 459.60 309.39 458.90 309.89 458.22 310.40 C 458.36 321.94 456.65 334.20 449.91 343.88 C 444.65 355.46 439.44 367.07 434.89 378.95 C 428.14 381.03 421.58 383.76 415.57 387.47 C 412.11 389.78 407.94 390.41 404.26 392.22 C 400.11 394.15 395.61 395.59 390.98 395.30 C 383.18 394.98 375.31 395.88 367.57 394.61 C 364.35 394.22 361.10 394.59 357.88 394.23 C 354.52 393.62 351.57 391.79 348.42 390.56 C 344.55 388.90 340.19 387.88 337.26 384.64 C 337.96 386.32 338.65 388.04 338.94 389.85 C 339.88 396.93 343.79 403.06 346.49 409.55 C 349.17 416.29 352.38 422.87 354.07 429.96 C 356.36 437.91 359.32 445.64 361.98 453.45 C 360.87 465.37 360.48 477.40 358.27 489.21 C 356.91 496.13 355.89 503.12 354.35 510.00 L 350.83 510.00 C 354.00 494.49 356.52 478.83 357.83 463.05 C 357.72 459.20 358.29 455.24 357.37 451.48 C 354.72 445.49 353.67 438.97 351.26 432.89 C 348.80 423.63 344.78 414.89 340.81 406.20 C 337.61 400.59 335.75 394.39 334.67 388.06 C 332.51 385.94 331.67 383.01 330.34 380.40 C 328.40 377.75 325.57 375.84 323.95 372.94 C 321.86 369.31 320.09 365.50 317.96 361.89 C 315.33 357.81 314.39 352.89 311.43 349.00 C 275.95 371.18 239.71 392.17 204.00 413.98 C 190.08 422.48 176.06 430.84 162.03 439.17 C 181.73 462.84 201.37 486.58 221.36 510.00 L 216.13 510.00 C 196.92 487.13 177.97 464.03 158.69 441.21 C 154.89 443.65 150.99 445.94 147.04 448.12 C 156.67 460.10 166.87 471.62 176.63 483.50 C 184.29 492.26 191.45 501.47 199.36 510.00 L 194.11 510.00 C 177.41 490.21 160.53 470.56 144.08 450.56 C 142.29 451.20 140.40 451.40 138.85 450.13 C 139.58 449.22 140.32 448.32 141.06 447.42 C 132.24 436.33 122.83 425.71 113.72 414.85 C 110.63 410.98 107.52 407.12 104.08 403.55 C 98.06 395.75 91.37 388.50 85.18 380.83 C 79.86 375.11 75.32 368.54 69.84 363.08 C 61.11 362.59 52.35 363.24 43.61 362.75 C 40.16 363.35 37.23 360.66 33.73 361.13 C 31.64 359.93 29.56 358.72 27.42 357.59 C 26.89 352.65 22.66 349.82 19.92 346.11 C 15.73 341.35 12.63 335.83 9.70 330.25 C 7.90 326.64 6.64 322.66 3.93 319.58 C 2.48 317.45 1.10 315.27 0.00 312.94 L 0.00 297.49 C 2.35 297.49 4.69 297.48 7.03 297.46 C 5.19 294.69 3.15 292.04 1.05 289.46 C 0.70 288.46 0.35 287.45 0.00 286.45 L 0.00 282.17 C 3.71 282.10 7.80 281.65 10.72 284.46 C 11.95 284.82 13.17 285.19 14.40 285.58 C 14.44 285.14 14.51 284.27 14.54 283.83 C 15.47 283.85 17.32 283.89 18.24 283.91 C 18.82 283.32 19.40 282.73 19.98 282.15 C 20.76 282.17 22.34 282.21 23.12 282.22 C 24.14 281.58 25.16 280.94 26.18 280.31 C 26.82 276.85 27.28 273.37 27.45 269.86 C 29.08 270.72 30.72 271.56 32.37 272.38 C 31.34 269.17 30.36 265.90 30.47 262.48 C 33.26 262.30 35.86 263.19 38.00 264.96 C 41.16 265.80 44.48 266.21 47.50 267.48 C 51.19 272.35 55.86 276.27 60.54 280.13 C 61.54 280.67 62.53 281.21 63.52 281.77 C 64.63 282.35 65.75 282.92 66.88 283.47 C 67.24 284.87 67.63 286.26 68.07 287.64 C 70.19 288.97 71.95 290.74 73.70 292.50 C 73.82 293.00 74.05 293.99 74.17 294.48 C 76.37 296.17 78.47 297.97 80.64 299.71 C 84.50 303.19 86.74 308.03 88.11 312.96 C 89.55 317.75 94.32 321.31 93.61 326.69 C 94.67 328.18 95.72 329.70 96.84 331.16 C 96.82 335.24 97.12 339.33 96.75 343.40 C 95.84 347.46 92.38 349.95 89.18 352.18 C 95.84 359.57 101.90 367.49 108.41 375.02 C 125.30 395.55 142.66 415.70 159.46 436.30 C 191.46 417.02 223.65 398.04 255.49 378.50 C 273.63 367.83 291.48 356.64 309.74 346.18 C 306.78 340.21 302.97 334.68 300.62 328.42 C 297.85 323.14 295.20 317.70 291.42 313.06 C 291.49 310.70 292.13 308.44 292.46 306.13 C 291.92 302.61 289.65 299.60 289.16 296.07 C 288.84 293.16 288.51 290.25 288.06 287.37 C 286.58 286.98 285.09 286.62 283.59 286.31 C 275.54 283.05 269.44 274.76 270.24 265.87 C 270.19 260.65 272.94 256.06 276.15 252.15 C 281.56 247.42 289.37 244.66 296.33 247.50 C 299.36 245.49 301.79 242.75 303.72 239.69 C 305.24 236.94 308.69 236.67 311.43 236.02 C 305.99 233.07 301.53 228.67 296.14 225.62 C 289.94 220.53 282.40 217.44 274.52 216.13 C 274.53 214.64 274.54 213.16 274.55 211.68 C 275.24 211.65 276.62 211.59 277.31 211.56 C 278.94 210.43 280.61 209.33 282.42 208.49 C 291.30 204.61 300.63 201.59 310.27 200.35 C 314.87 199.71 319.28 197.80 324.00 198.04 C 327.60 198.16 331.28 197.70 334.84 198.48 C 340.35 200.20 345.99 201.93 350.83 205.19 C 353.52 207.51 356.58 209.50 358.85 212.28 C 360.62 215.37 361.25 218.98 361.31 222.51 C 364.92 221.78 368.56 221.13 372.20 220.53 C 377.48 219.59 382.88 220.68 388.17 219.82 C 390.91 219.31 393.71 219.22 396.49 219.25 C 398.03 216.32 399.68 213.40 402.06 211.07 C 404.91 207.89 409.03 206.44 412.79 204.66 C 416.39 202.97 420.43 203.02 424.31 203.17 C 428.71 204.46 433.25 206.13 436.34 209.69 C 443.34 216.72 444.89 228.13 440.42 236.92 C 446.82 241.49 449.39 249.12 453.58 255.43 C 456.15 260.87 458.74 266.38 460.34 272.21 C 461.03 278.68 462.21 285.11 463.81 291.43 C 464.08 284.25 465.17 277.14 465.83 270.00 C 469.73 231.52 473.74 193.06 477.70 154.59 C 479.32 138.24 481.03 121.89 482.78 105.54 C 482.34 106.63 481.92 107.73 481.53 108.84 C 478.93 108.81 476.33 108.81 473.74 108.83 C 472.43 103.98 470.46 99.29 469.84 94.28 Z" />
<path fill="#fffffe" d=" M 474.20 98.56 C 475.48 98.60 476.76 98.65 478.05 98.70 C 477.23 99.55 476.40 100.40 475.58 101.26 C 475.12 100.36 474.66 99.46 474.20 98.56 Z" />
<path fill="#fffffe" d=" M 479.83 100.52 C 480.56 100.44 482.01 100.28 482.73 100.19 C 482.73 100.94 482.73 102.43 482.72 103.17 C 481.38 102.72 480.37 101.82 479.83 100.52 Z" />
<path fill="#f6f785" d=" M 464.93 132.36 C 468.26 132.17 463.68 135.46 464.93 132.36 Z" />
<path fill="#f6f785" d=" M 313.10 203.51 C 319.75 201.19 326.97 200.74 333.89 201.95 C 343.00 203.78 350.83 209.31 356.85 216.23 C 357.24 218.37 357.70 220.50 358.01 222.66 C 357.17 222.70 355.48 222.77 354.64 222.81 C 349.93 224.97 344.61 223.63 339.90 225.63 C 334.47 227.33 328.83 228.20 323.33 229.64 C 322.93 230.03 322.14 230.82 321.74 231.22 C 321.09 231.20 319.80 231.18 319.16 231.16 C 318.74 231.63 317.92 232.58 317.51 233.05 C 315.47 232.97 313.11 232.51 312.31 230.34 C 311.22 230.33 310.13 230.32 309.05 230.31 C 305.28 226.56 300.22 224.53 296.58 220.65 C 291.57 218.02 286.56 215.08 280.98 213.79 C 286.04 210.80 291.57 208.59 297.15 206.78 C 302.42 205.44 307.65 203.96 313.10 203.51 Z" />
<path fill="#fffffe" d=" M 409.03 211.04 C 411.63 208.98 414.84 207.91 417.85 206.60 C 420.17 206.53 422.53 206.38 424.79 207.07 C 431.81 209.07 437.53 214.96 438.91 222.17 C 439.72 224.70 439.70 227.49 438.91 230.02 C 438.46 233.54 436.32 236.47 434.30 239.26 C 432.03 242.37 428.18 243.56 424.85 245.15 C 419.46 246.91 414.01 244.45 409.54 241.53 C 406.41 239.21 404.77 235.55 403.00 232.19 C 400.54 224.70 403.31 216.26 409.03 211.04 Z" />
<path fill="#090704" d=" M 425.16 221.77 C 426.23 221.80 427.31 221.82 428.40 221.85 C 428.40 222.99 428.40 224.13 428.41 225.28 C 427.22 225.26 426.03 225.25 424.85 225.23 C 424.94 224.08 425.05 222.92 425.16 221.77 Z" />
<path fill="#fffffe" d=" M 373.03 223.96 C 380.04 222.62 387.41 224.80 394.31 222.60 C 394.15 226.60 395.55 230.43 395.34 234.44 C 396.23 236.62 397.00 238.81 397.25 241.17 C 402.05 244.38 406.27 248.91 412.13 250.19 C 418.24 251.97 424.65 250.12 429.98 247.01 C 433.69 245.83 435.94 242.60 438.79 240.21 C 441.02 242.44 443.17 244.79 444.64 247.61 C 447.04 252.02 450.17 256.07 451.93 260.82 C 453.18 264.23 455.22 267.30 456.29 270.79 C 456.67 272.47 457.31 274.11 457.26 275.86 C 457.06 282.03 460.10 287.79 459.88 293.96 C 460.03 296.77 459.04 299.45 458.64 302.20 C 458.18 301.31 457.71 300.42 457.24 299.54 C 457.25 300.50 457.27 302.42 457.27 303.38 C 453.82 308.61 455.49 314.98 454.06 320.67 C 453.71 325.03 452.27 329.18 451.14 333.38 C 450.82 334.30 450.54 335.23 450.28 336.17 C 448.72 338.77 446.00 341.01 446.19 344.30 C 443.86 347.63 442.87 351.67 440.49 354.94 C 439.48 357.71 438.51 360.51 437.43 363.25 C 436.18 365.46 434.52 367.55 434.18 370.14 C 433.49 371.32 432.77 372.46 432.05 373.62 C 431.82 374.42 431.55 375.21 431.24 375.99 C 427.84 377.19 424.54 378.68 421.24 380.13 C 416.60 382.13 412.59 385.34 407.83 387.10 C 406.60 387.36 405.36 387.58 404.13 387.83 C 401.04 390.36 396.89 391.16 393.05 391.81 C 384.40 391.58 375.65 392.55 367.12 390.92 C 362.02 391.04 356.43 391.43 352.29 387.82 C 351.38 387.56 350.47 387.30 349.57 387.05 C 343.59 385.44 339.29 380.89 334.06 377.89 C 328.22 370.76 323.64 362.67 319.20 354.62 C 317.30 351.88 316.76 348.50 315.61 345.43 C 314.76 342.94 313.76 340.47 312.32 338.26 C 310.79 337.09 309.13 336.09 307.86 334.63 C 307.26 331.64 305.66 328.97 304.91 326.03 C 303.73 324.48 302.76 322.76 302.41 320.83 C 301.03 318.67 299.44 316.66 297.54 314.94 C 297.46 312.34 297.81 309.66 297.00 307.15 C 295.62 301.59 291.81 296.62 292.34 290.69 C 292.11 289.64 291.75 288.64 291.49 287.62 C 294.95 286.80 298.58 286.37 301.64 284.41 C 304.09 282.48 306.32 280.37 308.19 277.87 C 308.81 276.56 309.46 275.28 310.08 273.97 C 310.92 270.60 311.45 267.16 311.07 263.68 C 310.26 261.16 309.66 258.55 308.38 256.21 C 307.18 254.92 306.12 253.51 305.15 252.06 C 303.70 251.34 302.47 250.28 301.36 249.13 C 304.38 246.22 306.50 242.51 309.78 239.86 C 311.22 239.52 312.63 239.12 314.06 238.72 C 315.49 237.32 317.28 236.41 319.27 236.13 C 319.67 235.75 320.46 234.99 320.85 234.61 C 321.47 234.61 322.70 234.59 323.32 234.59 C 327.75 230.64 334.24 231.36 339.59 229.52 C 345.06 227.42 351.06 228.18 356.49 225.91 C 356.41 228.83 359.55 227.42 361.19 227.89 L 361.31 226.24 C 365.17 225.24 369.16 224.91 373.03 223.96 Z" />
<path fill="#090704" d=" M 364.15 247.09 C 371.75 243.52 380.24 245.07 388.34 244.82 C 394.67 245.36 398.19 250.84 401.73 255.37 C 405.83 263.01 410.46 270.44 412.98 278.80 C 413.64 282.66 415.07 286.32 416.02 290.11 C 417.11 292.96 415.77 296.18 417.24 298.93 C 417.45 301.56 417.00 304.30 417.97 306.82 C 418.37 308.44 418.90 310.06 419.05 311.74 C 419.43 323.48 418.53 335.22 419.06 346.95 C 418.07 348.77 414.90 350.51 413.46 348.30 C 412.24 351.24 411.21 354.26 410.43 357.35 C 408.93 358.11 407.99 359.47 407.11 360.84 C 405.26 361.46 404.09 362.95 403.32 364.68 C 402.74 364.71 401.56 364.76 400.98 364.78 C 397.82 366.42 394.10 364.88 390.76 365.77 C 382.75 367.50 374.59 367.28 366.44 367.23 C 366.39 366.86 366.28 366.12 366.23 365.75 C 362.33 363.60 357.41 364.07 354.00 360.95 C 353.13 360.28 352.32 359.55 351.51 358.85 C 349.28 358.10 347.08 357.26 345.08 356.04 C 345.14 351.18 345.14 346.33 345.07 341.48 C 345.34 341.11 345.88 340.39 346.16 340.02 C 344.44 337.16 344.01 333.95 344.09 330.68 C 343.52 326.84 339.60 325.35 338.53 321.81 C 337.50 321.30 336.47 320.79 335.44 320.30 C 334.12 317.29 330.32 316.22 329.52 313.08 C 328.22 312.40 326.48 312.00 326.05 310.41 C 324.87 310.32 323.78 310.05 323.42 308.79 C 318.88 307.93 317.23 302.77 313.34 300.81 C 309.98 299.25 307.79 296.18 305.15 293.72 C 305.15 290.99 305.16 288.25 305.08 285.53 C 306.73 282.66 308.51 279.86 310.55 277.26 C 312.20 277.47 312.98 276.60 313.04 275.03 C 313.97 273.61 314.76 272.05 316.02 270.88 C 317.80 270.19 319.52 269.35 320.89 267.98 C 322.64 267.81 323.82 266.49 325.07 265.40 C 330.56 263.87 335.12 260.39 340.00 257.60 C 344.46 255.34 348.84 252.90 353.45 250.94 C 356.97 249.55 360.48 248.10 364.15 247.09 Z" />
<path fill="#fffffe" d=" M 377.89 251.49 C 377.70 247.17 385.27 247.05 385.32 251.31 C 385.45 250.82 385.70 249.84 385.83 249.35 C 387.99 247.94 390.49 247.97 392.71 249.27 C 393.71 251.33 393.70 253.60 392.70 255.66 C 390.28 257.15 387.58 256.88 385.33 255.21 C 384.26 258.33 380.46 257.82 378.18 256.48 L 378.14 254.56 C 377.66 255.26 376.71 256.67 376.24 257.37 C 374.90 258.04 373.46 258.41 371.97 258.51 C 371.47 258.20 370.49 257.57 370.00 257.26 C 368.52 255.04 368.85 252.46 369.80 250.11 C 372.58 248.20 375.64 249.38 377.89 251.49 Z" />
<path fill="#fffffe" d=" M 285.53 250.94 C 297.27 245.99 311.38 259.77 306.89 271.65 C 304.91 277.80 299.42 282.05 293.40 283.85 C 289.22 284.47 285.30 283.01 281.65 281.16 C 276.25 276.96 272.09 270.01 274.21 263.01 C 275.83 257.54 280.08 252.77 285.53 250.94 Z" />
<path fill="#fffffe" d=" M 361.03 250.79 C 361.78 250.78 363.28 250.77 364.03 250.77 C 364.54 251.06 365.57 251.64 366.08 251.93 C 366.52 252.94 366.97 253.96 367.42 254.98 C 366.97 256.01 366.53 257.04 366.09 258.07 C 365.58 258.35 364.55 258.91 364.03 259.19 C 363.24 259.23 361.67 259.30 360.88 259.34 C 359.39 258.31 358.41 256.79 357.48 255.28 C 357.97 254.16 358.47 253.04 358.97 251.92 C 359.48 251.64 360.52 251.07 361.03 250.79 Z" />
<path fill="#fffffe" d=" M 353.42 254.93 C 353.93 254.98 354.95 255.08 355.46 255.13 C 356.10 255.42 357.36 255.98 358.00 256.26 C 359.97 259.45 357.94 263.82 354.00 263.66 C 352.52 266.80 348.71 266.21 346.06 265.16 C 344.87 262.96 345.00 260.51 346.23 258.37 C 347.62 257.98 349.03 257.64 350.47 257.38 C 351.28 256.37 352.34 255.63 353.42 254.93 Z" />
<path fill="#fffffe" d=" M 338.67 262.73 C 340.64 261.66 342.84 261.84 344.86 262.68 C 346.18 264.88 346.17 267.35 344.72 269.49 C 342.61 270.16 339.45 269.86 338.90 272.62 C 337.56 273.31 336.12 273.77 334.61 273.78 C 334.05 273.46 332.93 272.82 332.37 272.50 C 331.38 270.53 331.28 268.37 332.34 266.40 C 332.91 266.11 334.05 265.53 334.62 265.24 C 335.27 265.24 336.58 265.25 337.23 265.25 C 337.71 264.41 338.19 263.57 338.67 262.73 Z" />
<path fill="#090704" d=" M 281.34 264.32 C 282.47 264.32 283.61 264.32 284.76 264.33 C 284.75 265.47 284.75 266.62 284.76 267.76 C 283.62 267.76 282.48 267.77 281.35 267.77 C 281.34 266.62 281.34 265.47 281.34 264.32 Z" />
<path fill="#f6f785" d=" M 35.63 268.47 C 38.57 269.10 41.49 269.86 44.46 270.41 C 49.42 277.32 56.75 281.93 63.53 286.85 C 63.91 288.00 64.30 289.14 64.71 290.28 C 67.19 292.00 70.10 293.90 70.84 297.03 C 74.63 300.43 78.93 303.28 82.23 307.21 C 84.04 312.93 86.22 318.57 89.51 323.62 C 90.53 324.59 89.39 325.71 89.19 326.73 C 90.69 328.40 92.71 329.83 93.38 332.06 C 93.71 336.75 93.90 341.58 91.88 345.95 C 91.15 350.46 86.70 352.50 83.61 355.23 C 79.25 354.49 75.61 356.90 72.02 358.94 C 71.37 358.27 70.71 357.60 70.06 356.94 C 68.42 356.94 66.77 356.94 65.13 356.95 C 65.88 357.80 66.62 358.67 67.36 359.54 C 64.14 359.60 60.91 359.38 57.70 359.65 C 52.32 360.97 46.75 360.18 41.27 360.39 C 40.44 359.59 39.60 358.80 38.76 358.02 C 35.63 357.44 32.90 355.69 29.80 355.01 C 29.78 353.52 29.76 352.04 29.75 350.55 C 24.24 345.61 19.98 339.53 15.56 333.66 C 14.90 330.49 12.25 328.25 11.69 325.05 C 11.36 324.68 10.70 323.93 10.37 323.56 C 9.97 322.08 9.56 320.61 9.20 319.12 C 7.21 316.98 4.57 315.03 4.14 311.93 C 2.98 308.28 3.45 304.42 3.45 300.67 C 4.76 300.77 5.83 301.40 6.64 302.43 C 8.12 302.83 9.69 302.54 11.20 302.61 C 11.21 299.46 10.02 296.53 9.09 293.59 C 6.86 291.06 5.56 287.86 3.12 285.50 C 4.66 285.65 6.14 286.03 7.57 286.64 C 7.90 286.98 8.56 287.65 8.90 287.99 C 12.00 288.19 14.58 290.41 17.79 289.95 C 17.81 289.32 17.86 288.07 17.88 287.45 C 19.70 287.54 21.39 287.09 22.58 285.65 C 24.62 285.61 26.65 285.61 28.68 285.63 C 29.51 283.06 29.97 280.40 29.83 277.70 C 29.49 277.21 28.80 276.24 28.46 275.75 C 31.17 275.25 33.94 275.37 36.68 275.39 C 36.56 273.05 36.17 270.74 35.63 268.47 Z" />
<path fill="#fffffe" d=" M 318.75 271.42 C 322.28 270.51 325.76 267.34 329.43 269.50 C 329.75 270.05 330.41 271.16 330.73 271.71 C 330.68 273.23 330.27 274.69 329.58 276.05 C 327.35 277.01 325.19 278.12 322.97 279.10 C 323.40 280.51 323.78 281.94 324.04 283.39 C 322.95 285.35 320.91 286.24 319.03 287.26 C 318.32 287.27 316.91 287.28 316.20 287.29 C 316.19 289.24 316.19 291.19 316.24 293.14 C 312.47 296.07 307.54 291.53 308.41 287.34 C 309.04 287.32 310.31 287.29 310.94 287.27 C 310.74 285.37 311.96 284.19 313.52 283.39 C 313.89 282.24 314.26 281.09 314.67 279.95 C 316.24 279.36 317.70 278.52 318.99 277.44 C 317.55 275.62 318.03 273.42 318.75 271.42 Z" />
<path fill="#fffffe" d=" M 0.00 286.45 C 0.35 287.45 0.70 288.46 1.05 289.46 C 3.15 292.04 5.19 294.69 7.03 297.46 C 4.69 297.48 2.35 297.49 0.00 297.49 L 0.00 286.45 Z" />
<path fill="#fe007e" d=" M 458.22 310.40 C 458.90 309.89 459.60 309.39 460.30 308.88 C 463.52 323.84 469.22 338.12 472.69 353.02 C 477.03 368.42 480.32 384.07 484.15 399.59 C 486.65 409.15 489.63 418.59 491.49 428.31 C 494.18 439.05 496.66 449.92 497.25 461.01 C 497.21 477.34 497.24 493.67 497.23 510.00 L 354.35 510.00 C 355.89 503.12 356.91 496.13 358.27 489.21 C 360.48 477.40 360.87 465.37 361.98 453.45 C 359.32 445.64 356.36 437.91 354.07 429.96 C 352.38 422.87 349.17 416.29 346.49 409.55 C 343.79 403.06 339.88 396.93 338.94 389.85 C 338.65 388.04 337.96 386.32 337.26 384.64 C 340.19 387.88 344.55 388.90 348.42 390.56 C 351.57 391.79 354.52 393.62 357.88 394.23 C 361.10 394.59 364.35 394.22 367.57 394.61 C 375.31 395.88 383.18 394.98 390.98 395.30 C 395.61 395.59 400.11 394.15 404.26 392.22 C 407.94 390.41 412.11 389.78 415.57 387.47 C 421.58 383.76 428.14 381.03 434.89 378.95 C 439.44 367.07 444.65 355.46 449.91 343.88 C 456.65 334.20 458.36 321.94 458.22 310.40 Z" />
<path fill="#fffffe" d=" M 0.00 312.94 C 1.10 315.27 2.48 317.45 3.93 319.58 C 6.64 322.66 7.90 326.64 9.70 330.25 C 12.63 335.83 15.73 341.35 19.92 346.11 C 22.66 349.82 26.89 352.65 27.42 357.59 C 29.56 358.72 31.64 359.93 33.73 361.13 C 37.23 360.66 40.16 363.35 43.61 362.75 C 52.35 363.24 61.11 362.59 69.84 363.08 C 75.32 368.54 79.86 375.11 85.18 380.83 C 81.93 382.64 77.91 381.85 74.78 383.77 C 74.32 385.51 74.84 386.87 76.67 387.21 C 87.02 390.48 94.38 399.00 104.08 403.55 C 107.52 407.12 110.63 410.98 113.72 414.85 C 92.98 411.03 72.92 403.98 51.95 401.28 C 45.05 401.06 38.15 401.28 31.25 401.22 C 31.57 404.56 32.08 408.06 34.06 410.89 C 40.27 419.25 46.35 427.84 50.74 437.32 C 54.35 446.32 59.88 454.34 64.49 462.83 C 68.16 469.84 73.30 475.91 77.47 482.62 C 82.28 489.09 88.56 494.39 92.84 501.28 C 94.86 504.19 96.91 507.07 98.92 510.00 L 0.00 510.00 L 0.00 312.94 Z" />
<path fill="#fffffe" d=" M 412.92 324.94 C 414.48 323.70 416.79 323.22 418.23 324.96 C 418.58 326.54 418.07 328.02 416.97 329.15 C 414.28 329.47 412.51 327.62 412.92 324.94 Z" />
<path fill="#fffffe" d=" M 413.79 330.65 C 414.71 330.65 416.53 330.65 417.44 330.64 C 417.81 332.03 418.35 333.48 417.85 334.93 C 416.82 336.29 414.11 336.11 413.21 334.66 C 412.85 333.28 413.40 331.95 413.79 330.65 Z" />
<path fill="#fffffe" d=" M 410.71 337.57 C 412.12 337.02 413.58 336.63 415.10 336.50 C 415.63 336.81 416.69 337.45 417.22 337.76 C 418.04 339.59 418.23 341.56 417.43 343.44 C 416.70 343.42 415.23 343.37 414.50 343.35 C 412.93 344.34 411.38 345.35 409.80 346.33 C 408.51 349.19 408.31 352.73 405.86 354.93 C 404.61 356.36 403.44 357.87 402.43 359.48 C 400.79 360.12 399.10 360.76 397.31 360.62 C 397.11 361.04 396.72 361.88 396.52 362.30 C 390.74 360.60 384.72 361.57 378.82 361.08 C 375.77 360.16 372.56 360.39 369.42 360.31 C 370.20 358.09 372.96 357.35 374.94 358.38 C 377.46 359.43 379.99 356.84 382.40 358.65 C 384.26 357.60 386.27 357.78 388.08 358.93 C 388.10 357.33 389.72 356.92 390.71 356.11 C 391.54 356.13 393.21 356.16 394.04 356.18 C 394.79 354.71 395.15 352.76 396.74 351.93 C 398.69 351.14 400.77 350.72 402.77 350.08 C 402.87 348.19 403.17 346.32 403.81 344.55 C 405.62 343.70 407.47 342.93 409.20 341.92 C 409.85 340.52 410.25 339.03 410.71 337.57 Z" />
<path fill="#fcfe01" d=" M 204.00 413.98 C 239.71 392.17 275.95 371.18 311.43 349.00 C 314.39 352.89 315.33 357.81 317.96 361.89 C 320.09 365.50 321.86 369.31 323.95 372.94 C 325.57 375.84 328.40 377.75 330.34 380.40 C 331.67 383.01 332.51 385.94 334.67 388.06 C 335.75 394.39 337.61 400.59 340.81 406.20 C 344.78 414.89 348.80 423.63 351.26 432.89 C 353.67 438.97 354.72 445.49 357.37 451.48 C 358.29 455.24 357.72 459.20 357.83 463.05 C 356.52 478.83 354.00 494.49 350.83 510.00 L 221.36 510.00 C 201.37 486.58 181.73 462.84 162.03 439.17 C 176.06 430.84 190.08 422.48 204.00 413.98 Z" />
<path fill="#fffffe" d=" M 348.39 350.21 C 350.21 350.20 352.04 350.13 353.86 350.28 C 355.23 351.20 355.85 352.90 356.94 354.12 C 357.62 356.83 355.51 358.36 352.97 357.96 C 352.60 357.30 351.86 355.98 351.49 355.32 C 348.56 355.81 348.44 352.22 348.39 350.21 Z" />
<path fill="#785622" d=" M 74.04 361.63 C 78.75 360.28 82.42 356.85 86.68 354.57 C 88.87 358.18 91.97 361.11 94.54 364.44 C 115.24 388.92 135.58 413.71 156.23 438.23 C 152.43 440.63 148.69 443.16 144.63 445.12 C 134.38 434.05 125.25 421.99 115.20 410.74 C 101.60 394.27 87.65 378.09 74.04 361.63 Z" />
<path fill="#fffffe" d=" M 358.65 360.42 C 358.12 358.72 356.77 356.33 359.11 355.39 C 362.71 354.81 369.18 355.03 368.18 360.36 C 365.00 360.39 361.83 360.37 358.65 360.42 Z" />
<path fill="#fcfe01" d=" M 74.78 383.77 C 77.91 381.85 81.93 382.64 85.18 380.83 C 91.37 388.50 98.06 395.75 104.08 403.55 C 94.38 399.00 87.02 390.48 76.67 387.21 C 74.84 386.87 74.32 385.51 74.78 383.77 Z" />
<path fill="#fcfe01" d=" M 31.25 401.22 C 38.15 401.28 45.05 401.06 51.95 401.28 C 72.92 403.98 92.98 411.03 113.72 414.85 C 122.83 425.71 132.24 436.33 141.06 447.42 C 140.32 448.32 139.58 449.22 138.85 450.13 C 140.40 451.40 142.29 451.20 144.08 450.56 C 160.53 470.56 177.41 490.21 194.11 510.00 L 98.92 510.00 C 96.91 507.07 94.86 504.19 92.84 501.28 C 88.56 494.39 82.28 489.09 77.47 482.62 C 73.30 475.91 68.16 469.84 64.49 462.83 C 59.88 454.34 54.35 446.32 50.74 437.32 C 46.35 427.84 40.27 419.25 34.06 410.89 C 32.08 408.06 31.57 404.56 31.25 401.22 Z" />
<path fill="#fffffe" d=" M 670.53 429.49 C 673.65 428.54 676.80 427.71 680.00 427.04 L 680.00 510.00 L 558.06 510.00 C 551.03 503.04 544.19 495.85 536.37 489.76 C 532.88 487.75 529.65 485.35 526.93 482.39 C 536.26 478.00 545.64 473.72 554.76 468.89 C 563.14 465.09 571.77 461.85 580.23 458.23 C 600.49 451.12 620.76 444.07 641.08 437.11 C 650.83 434.31 660.85 432.55 670.53 429.49 Z" />
<path fill="#785622" d=" M 147.04 448.12 C 150.99 445.94 154.89 443.65 158.69 441.21 C 177.97 464.03 196.92 487.13 216.13 510.00 L 199.36 510.00 C 191.45 501.47 184.29 492.26 176.63 483.50 C 166.87 471.62 156.67 460.10 147.04 448.12 Z" />
</svg>
